<?xml version="1.0" encoding="UTF-8"?>
<svg version="1.1" xmlns="http://www.w3.org/2000/svg" width="104" height="125">
<path d="M0 0 C0.83692383 0.45632812 1.67384766 0.91265625 2.53613281 1.3828125 C3.86499512 2.09824219 3.86499512 2.09824219 5.22070312 2.828125 C6.17557617 3.38242188 7.13044922 3.93671875 8.11425781 4.5078125 C9.72107422 5.43726685 9.72107422 5.43726685 11.36035156 6.38549805 C13.05611328 7.3741687 13.05611328 7.3741687 14.78613281 8.3828125 C15.95403606 9.06236845 17.12200521 9.74181114 18.29003906 10.42114258 C20.04401352 11.44156955 21.79769846 12.4624754 23.55041504 13.48506165 C27.00624137 15.49996799 30.4751904 17.4891998 33.95800781 19.45703125 C34.74272461 19.90498047 35.52744141 20.35292969 36.3359375 20.81445312 C37.76432871 21.62977097 39.19706897 22.43753343 40.63476562 23.23632812 C43.11684286 24.66667772 45.19938864 25.94762126 46.96582031 28.23046875 C47.76467584 31.24532763 47.72339288 34.01980908 47.66113281 37.1328125 C47.64308594 38.30328125 47.62503906 39.47375 47.60644531 40.6796875 C47.58324219 41.57171875 47.56003906 42.46375 47.53613281 43.3828125 C46.10601308 44.24927917 44.66672663 45.10063079 43.22363281 45.9453125 C42.423125 46.42097656 41.62261719 46.89664063 40.79785156 47.38671875 C38.53613281 48.3828125 38.53613281 48.3828125 35.53613281 47.3828125 C35.59591309 46.53066162 35.65569336 45.67851074 35.71728516 44.80053711 C35.84867677 37.83431485 35.84867677 37.83431485 32.38085938 32.09423828 C29.38894396 30.14006867 26.37081729 28.51588764 23.16113281 26.9453125 C21.58912109 26.10709961 21.58912109 26.10709961 19.98535156 25.25195312 C17.88837299 24.13866228 15.77782896 23.05053557 13.65429688 21.98876953 C11.56901877 20.91478273 9.5170973 19.77352444 7.50390625 18.56982422 C6.55290039 18.00150879 5.60189453 17.43319336 4.62207031 16.84765625 C3.78466309 16.32679443 2.94725586 15.80593262 2.08447266 15.26928711 C-1.46137396 14.03581623 -3.07585874 14.87337062 -6.46386719 16.3828125 C-8.52375317 17.45558214 -10.55569602 18.58317086 -12.56152344 19.75390625 C-13.69267578 20.41068359 -14.82382812 21.06746094 -15.98925781 21.74414062 C-17.16835164 22.43610017 -18.34738761 23.12815831 -19.52636719 23.8203125 C-20.70901886 24.50896359 -21.89195931 25.19711901 -23.07519531 25.88476562 C-26.20917726 27.7100911 -29.33969631 29.54074949 -32.46386719 31.3828125 C-33.40182129 31.73649902 -34.33977539 32.09018555 -35.30615234 32.45458984 C-37.93890366 34.80732461 -37.8358394 35.51778494 -38.03149414 38.94604492 C-38.03070213 40.87697135 -38.00242896 42.80800941 -37.95214844 44.73828125 C-37.9450737 45.75505447 -37.93799896 46.7718277 -37.93070984 47.81941223 C-37.90269637 51.07045734 -37.83994304 54.31978703 -37.77636719 57.5703125 C-37.7512934 59.77276161 -37.72847863 61.97523768 -37.70800781 64.17773438 C-37.65284729 69.58001346 -37.5691521 74.98129045 -37.46386719 80.3828125 C-36.51302246 80.91853882 -36.51302246 80.91853882 -35.54296875 81.46508789 C-33.65938741 82.52678326 -31.77620127 83.58917993 -29.89331055 84.65209961 C-27.77050133 85.84936857 -25.64630821 87.04418705 -23.52075195 88.23657227 C-14.52332999 93.29827333 -14.52332999 93.29827333 -10.47558594 95.875 C-9.46109375 96.51695313 -8.44660156 97.15890625 -7.40136719 97.8203125 C-6.56476562 98.37589844 -5.72816406 98.93148437 -4.86621094 99.50390625 C-1.44918413 100.75403801 0.18514273 99.7063149 3.53613281 98.3828125 C5.67196007 97.22898841 7.77639883 96.01587047 9.85253906 94.7578125 C10.7209568 94.23646729 10.7209568 94.23646729 11.60691833 93.70458984 C13.44087782 92.6028382 15.27008155 91.49351312 17.09863281 90.3828125 C18.93119883 89.2728976 20.76477867 88.16479513 22.60105896 87.06103516 C24.2649531 86.06048083 25.92518528 85.05384419 27.58520508 84.046875 C30.53613281 82.3828125 30.53613281 82.3828125 35.53613281 80.3828125 C35.53613281 73.4528125 35.53613281 66.5228125 35.53613281 59.3828125 C40.2264671 58.21022893 40.2264671 58.21022893 43.71972656 60.10546875 C46.33003326 61.86286092 47.36197925 62.83665746 48.32568359 65.85888672 C48.65468533 68.88351283 48.6767994 71.77944164 48.59863281 74.8203125 C48.63794922 75.84447266 48.67726563 76.86863281 48.71777344 77.92382812 C48.66630783 85.15240639 48.66630783 85.15240639 45.84863281 88.2199707 C43.48823018 89.83166333 41.09481929 91.11016493 38.53613281 92.3828125 C36.73870221 93.41509044 34.94451483 94.45303253 33.15332031 95.49609375 C31.24118489 96.56595152 29.32706139 97.63226253 27.41113281 98.6953125 C19.06129822 103.33478762 19.06129822 103.33478762 10.87988281 108.26171875 C10.19941895 108.68735107 9.51895508 109.1129834 8.81787109 109.55151367 C7.5841939 110.3320001 6.35795988 111.12443263 5.14111328 111.9309082 C2.7457924 113.44301231 1.01818971 114.38202224 -1.84667969 114.38671875 C-5.67622299 112.91777453 -9.15880279 110.98092283 -12.71386719 108.9453125 C-13.50019531 108.50155273 -14.28652344 108.05779297 -15.09667969 107.60058594 C-23.27896437 102.9637401 -31.38323143 98.1940367 -39.46386719 93.3828125 C-40.53636719 92.74730469 -41.60886719 92.11179687 -42.71386719 91.45703125 C-49.32351631 87.52316338 -49.32351631 87.52316338 -50.46386719 86.3828125 C-50.58379335 84.59425285 -50.63405163 82.80097713 -50.65673828 81.00854492 C-50.67280121 79.86032761 -50.68886414 78.71211029 -50.70541382 77.52909851 C-50.74967066 72.26835806 -50.79137899 67.00770654 -50.81396484 61.74682617 C-50.83060177 58.27954949 -50.87536383 54.81322547 -50.92633629 51.34630871 C-50.96810399 48.0395172 -50.97514749 44.73281191 -50.98730469 41.42578125 C-51.00997406 40.18088425 -51.03264343 38.93598724 -51.05599976 37.65336609 C-51.05314972 36.49569229 -51.05029968 35.33801849 -51.04736328 34.14526367 C-51.05545013 33.12679855 -51.06353699 32.10833344 -51.0718689 31.05900574 C-50.23938985 27.3947483 -48.53439464 26.41551669 -45.46386719 24.3828125 C-43.55030754 23.21755684 -41.60950764 22.09648933 -39.65136719 21.0078125 C-38.42668996 20.32028941 -37.20279706 19.6313682 -35.97949219 18.94140625 C-35.28404297 18.54937012 -34.58859375 18.15733398 -33.87207031 17.75341797 C-28.85827002 14.89986213 -23.88272254 11.98000192 -18.90136719 9.0703125 C-17.85424561 8.45945801 -16.80712402 7.84860352 -15.72827148 7.21923828 C-10.22687731 4.0655152 -10.22687731 4.0655152 -4.94848633 0.56567383 C-2.46386719 -0.6171875 -2.46386719 -0.6171875 0 0 Z " fill="#22ACDF" transform="translate(53.4638671875,4.6171875)"/>
<path d="M0 0 C0.66 0.33 1.32 0.66 2 1 C1.34969315 1.38293213 0.69938629 1.76586426 0.02937317 2.16040039 C-2.22191817 3.83360317 -2.22191817 3.83360317 -2.48774719 6.46655273 C-2.48188095 7.44567627 -2.47601471 8.4247998 -2.4699707 9.43359375 C-2.47435905 11.10047241 -2.47435905 11.10047241 -2.47883606 12.80102539 C-2.46132797 14.00106201 -2.44381989 15.20109863 -2.42578125 16.4375 C-2.42249313 17.66911865 -2.41920502 18.9007373 -2.41581726 20.16967773 C-2.4027115 23.44365393 -2.37174665 26.71684865 -2.33294678 29.99060059 C-2.29907624 33.31921497 -2.2932493 36.64779246 -2.28320312 39.9765625 C-2.26977691 42.50521702 -2.25485335 45.03386414 -2.23828125 47.5625 C-2.23089432 48.76253662 -2.22350739 49.96257324 -2.21589661 51.19897461 C-2.20306137 52.31022705 -2.19022614 53.42147949 -2.17700195 54.56640625 C-2.16715775 55.54552979 -2.15731354 56.52465332 -2.14717102 57.53344727 C-2.09883867 60.13542077 -2.09883867 60.13542077 -1 63 C-0.01 62.505 -0.01 62.505 1 62 C0.67 60.02 0.34 58.04 0 56 C1.485 55.505 1.485 55.505 3 55 C4.15748463 50.33298903 4.21985583 45.75972901 4.31640625 40.98046875 C4.3475779 39.69261223 4.3475779 39.69261223 4.37937927 38.3787384 C4.44452523 35.64840346 4.50359654 32.91797605 4.5625 30.1875 C4.6057185 28.33137082 4.64933384 26.47525084 4.69335938 24.61914062 C4.80017061 20.07952075 4.90153565 15.53980828 5 11 C5.66 10.67 6.32 10.34 7 10 C6.94218102 10.82113533 6.94218102 10.82113533 6.88319397 11.65885925 C4.09580962 36.32247873 4.09580962 36.32247873 10.11132812 59.34179688 C15.38244451 64.03111233 21.50593028 66.21613128 28.21679688 68.125 C32.03476212 69.32531469 34.77824265 71.17019543 38.0625 73.4375 C40.47648299 75.18268709 40.47648299 75.18268709 43 76 C47.5703817 74.8082019 51.29319205 72.81290694 55.31640625 70.375 C56.18482399 69.85365479 56.18482399 69.85365479 57.07078552 69.32177734 C58.904745 68.2200257 60.73394874 67.11070062 62.5625 66 C64.39506601 64.8900851 66.22864585 63.78198263 68.06492615 62.67822266 C69.72882028 61.67766833 71.38905247 60.67103169 73.04907227 59.6640625 C76 58 76 58 81 56 C81 49.07 81 42.14 81 35 C85.69033428 33.82741643 85.69033428 33.82741643 89.18359375 35.72265625 C91.79390044 37.48004842 92.82584644 38.45384496 93.78955078 41.47607422 C94.11855252 44.50070033 94.14066659 47.39662914 94.0625 50.4375 C94.10181641 51.46166016 94.14113281 52.48582031 94.18164062 53.54101562 C94.13017502 60.76959389 94.13017502 60.76959389 91.3125 63.8371582 C88.95209737 65.44885083 86.55868648 66.72735243 84 68 C82.2025694 69.03227794 80.40838202 70.07022003 78.6171875 71.11328125 C76.70505207 72.18313902 74.79092858 73.24945003 72.875 74.3125 C64.5251654 78.95197512 64.5251654 78.95197512 56.34375 83.87890625 C55.66328613 84.30453857 54.98282227 84.7301709 54.28173828 85.16870117 C53.04806109 85.9491876 51.82182706 86.74162013 50.60498047 87.5480957 C48.20965959 89.06019981 46.4820569 89.99920974 43.6171875 90.00390625 C39.7876442 88.53496203 36.3050644 86.59811033 32.75 84.5625 C31.96367188 84.11874023 31.17734375 83.67498047 30.3671875 83.21777344 C22.18490282 78.5809276 14.08063576 73.8112242 6 69 C4.9275 68.36449219 3.855 67.72898437 2.75 67.07421875 C-3.85964912 63.14035088 -3.85964912 63.14035088 -5 62 C-5.11992616 60.21144035 -5.17018444 58.41816463 -5.19287109 56.62573242 C-5.20893402 55.47751511 -5.22499695 54.32929779 -5.24154663 53.14628601 C-5.28580347 47.88554556 -5.32751181 42.62489404 -5.35009766 37.36401367 C-5.36673458 33.89673699 -5.41149665 30.43041297 -5.4624691 26.96349621 C-5.5042368 23.6567047 -5.5112803 20.34999941 -5.5234375 17.04296875 C-5.54610687 15.79807175 -5.56877625 14.55317474 -5.59213257 13.27055359 C-5.58928253 12.11287979 -5.5864325 10.95520599 -5.58349609 9.76245117 C-5.59158295 8.74398605 -5.5996698 7.72552094 -5.60800171 6.67619324 C-4.78515274 3.05432372 -3.01828313 2.00911657 0 0 Z " fill="#1C7ECB" transform="translate(8,29)"/>
<path d="M0 0 C4.35563571 1.21371552 7.46544705 3.04999112 11.15234375 5.59765625 C11.78849609 6.02240234 12.42464844 6.44714844 13.08007812 6.88476562 C14.63257954 7.92365755 16.17481887 8.97785761 17.71484375 10.03515625 C18.41609375 9.6484375 19.11734375 9.26171875 19.83984375 8.86328125 C21.80788194 7.78299942 23.77942212 6.70907978 25.75390625 5.640625 C27.52764357 4.67887561 29.29550696 3.7059843 31.05078125 2.7109375 C34.03741403 1.08030466 36.14603349 0.01042537 39.58984375 0.16015625 C41.71484375 1.03515625 41.71484375 1.03515625 43.71484375 3.03515625 C44.51765487 7.64753337 44.55927216 12.3616401 44.71484375 17.03515625 C44.74884277 18.03949707 44.7828418 19.04383789 44.81787109 20.07861328 C44.91570265 23.43915223 44.97663419 26.79859528 45.02734375 30.16015625 C45.05715332 31.26302979 45.08696289 32.36590332 45.11767578 33.50219727 C45.12524902 34.54690186 45.13282227 35.59160645 45.140625 36.66796875 C45.15520752 37.60527832 45.16979004 38.54258789 45.18481445 39.50830078 C44.56958616 42.81615162 43.3532893 44.01006093 40.71484375 46.03515625 C37.58984375 46.03515625 37.58984375 46.03515625 34.71484375 45.03515625 C32.54747488 41.84876629 32.41673592 38.96363366 32.30078125 35.17578125 C32.26210937 34.06074219 32.2234375 32.94570312 32.18359375 31.796875 C32.15265625 30.63800781 32.12171875 29.47914062 32.08984375 28.28515625 C32.03183594 26.52365234 32.03183594 26.52365234 31.97265625 24.7265625 C31.87844555 21.82958357 31.79282773 18.93260999 31.71484375 16.03515625 C30.895 16.55207031 30.07515625 17.06898437 29.23046875 17.6015625 C28.1528125 18.26027344 27.07515625 18.91898438 25.96484375 19.59765625 C24.8975 20.25894531 23.83015625 20.92023437 22.73046875 21.6015625 C19.71484375 23.03515625 19.71484375 23.03515625 17.71484375 22.94140625 C14.92884864 21.67900222 12.18921352 20.36445385 9.46484375 18.97265625 C8.3871875 18.42480469 7.30953125 17.87695312 6.19921875 17.3125 C5.379375 16.89097656 4.55953125 16.46945313 3.71484375 16.03515625 C3.8749292 16.75823975 4.03501465 17.48132324 4.19995117 18.22631836 C5.01518486 22.67357466 4.98102934 27.08663291 5.02734375 31.59765625 C5.05634766 32.54318359 5.08535156 33.48871094 5.11523438 34.46289062 C5.17879428 41.38114195 5.17879428 41.38114195 2.85546875 44.65625 C0.17730601 46.38141688 -1.16185672 46.67583308 -4.28515625 46.03515625 C-7.04538264 43.49427187 -7.29534082 41.93738434 -7.68920898 38.15625 C-7.71569466 36.59524571 -7.72449325 35.03387466 -7.71875 33.47265625 C-7.72399185 32.64435303 -7.7292337 31.8160498 -7.7346344 30.96264648 C-7.74104737 29.21436686 -7.73972697 27.46604404 -7.73120117 25.71777344 C-7.72268487 23.04414073 -7.75147038 20.37264078 -7.78320312 17.69921875 C-7.78481513 15.99869856 -7.78423761 14.29817458 -7.78125 12.59765625 C-7.79248398 11.799646 -7.80371796 11.00163574 -7.81529236 10.17944336 C-7.77029701 6.59372721 -7.58345583 4.449018 -5.45947266 1.50219727 C-3.28515625 0.03515625 -3.28515625 0.03515625 0 0 Z " fill="#1D8ED6" transform="translate(33.28515625,39.96484375)"/>
<path d="M0 0 C0.66 0.33 1.32 0.66 2 1 C1.34969315 1.38293213 0.69938629 1.76586426 0.02937317 2.16040039 C-2.22191817 3.83360317 -2.22191817 3.83360317 -2.48774719 6.46655273 C-2.48188095 7.44567627 -2.47601471 8.4247998 -2.4699707 9.43359375 C-2.47435905 11.10047241 -2.47435905 11.10047241 -2.47883606 12.80102539 C-2.46132797 14.00106201 -2.44381989 15.20109863 -2.42578125 16.4375 C-2.42249313 17.66911865 -2.41920502 18.9007373 -2.41581726 20.16967773 C-2.4027115 23.44365393 -2.37174665 26.71684865 -2.33294678 29.99060059 C-2.29907624 33.31921497 -2.2932493 36.64779246 -2.28320312 39.9765625 C-2.26977691 42.50521702 -2.25485335 45.03386414 -2.23828125 47.5625 C-2.23089432 48.76253662 -2.22350739 49.96257324 -2.21589661 51.19897461 C-2.20306137 52.31022705 -2.19022614 53.42147949 -2.17700195 54.56640625 C-2.16715775 55.54552979 -2.15731354 56.52465332 -2.14717102 57.53344727 C-2.09883867 60.13542077 -2.09883867 60.13542077 -1 63 C-0.01 62.505 -0.01 62.505 1 62 C0.67 60.02 0.34 58.04 0 56 C1.485 55.505 1.485 55.505 3 55 C4.15748463 50.33298903 4.21985583 45.75972901 4.31640625 40.98046875 C4.3475779 39.69261223 4.3475779 39.69261223 4.37937927 38.3787384 C4.44452523 35.64840346 4.50359654 32.91797605 4.5625 30.1875 C4.6057185 28.33137082 4.64933384 26.47525084 4.69335938 24.61914062 C4.80017061 20.07952075 4.90153565 15.53980828 5 11 C5.66 10.67 6.32 10.34 7 10 C7.33 25.18 7.66 40.36 8 56 C8.66 56.33 9.32 56.66 10 57 C10 58.32 10 59.64 10 61 C10.78375 61.04125 11.5675 61.0825 12.375 61.125 C17.47687671 62.35648748 21.79594015 64.86772616 26 68 C26 68.66 26 69.32 26 70 C27.32 70.33 28.64 70.66 30 71 C28.8141763 74.37503669 27.72426311 76.64722731 25 79 C21.19680346 77.58311437 17.7973178 75.82699852 14.296875 73.77734375 C12.70359375 72.84631836 12.70359375 72.84631836 11.078125 71.89648438 C9.97984375 71.25001953 8.8815625 70.60355469 7.75 69.9375 C6.079375 68.96200195 6.079375 68.96200195 4.375 67.96679688 C-3.85688973 63.14311027 -3.85688973 63.14311027 -5 62 C-5.11992616 60.21144035 -5.17018444 58.41816463 -5.19287109 56.62573242 C-5.20893402 55.47751511 -5.22499695 54.32929779 -5.24154663 53.14628601 C-5.28580347 47.88554556 -5.32751181 42.62489404 -5.35009766 37.36401367 C-5.36673458 33.89673699 -5.41149665 30.43041297 -5.4624691 26.96349621 C-5.5042368 23.6567047 -5.5112803 20.34999941 -5.5234375 17.04296875 C-5.54610687 15.79807175 -5.56877625 14.55317474 -5.59213257 13.27055359 C-5.58928253 12.11287979 -5.5864325 10.95520599 -5.58349609 9.76245117 C-5.59158295 8.74398605 -5.5996698 7.72552094 -5.60800171 6.67619324 C-4.78515274 3.05432372 -3.01828313 2.00911657 0 0 Z " fill="#1986D2" transform="translate(8,29)"/>
<path d="M0 0 C1.051875 0.5878125 1.051875 0.5878125 2.125 1.1875 C1.795 2.8375 1.465 4.4875 1.125 6.1875 C-0.855 6.5175 -2.835 6.8475 -4.875 7.1875 C-4.88308685 7.73793976 -4.89117371 8.28837952 -4.89950562 8.85549927 C-4.98574439 14.59855762 -5.08525588 20.34127848 -5.19238281 26.08398438 C-5.23060153 28.22552816 -5.26546668 30.36713457 -5.296875 32.50878906 C-5.34267979 35.59202417 -5.40064917 38.67483071 -5.4609375 41.7578125 C-5.47826431 43.18784103 -5.47826431 43.18784103 -5.49594116 44.64675903 C-5.60290065 49.49408943 -5.82701059 53.69575246 -7.875 58.1875 C-8.865 58.6825 -8.865 58.6825 -9.875 59.1875 C-9.545 60.8375 -9.215 62.4875 -8.875 64.1875 C-10.36 64.6825 -10.36 64.6825 -11.875 65.1875 C-14.10857923 61.83713115 -14.13867103 60.68945663 -14.18139648 56.76977539 C-14.19738388 55.66175064 -14.21337128 54.55372589 -14.22984314 53.41212463 C-14.23520584 52.21522507 -14.24056854 51.0183255 -14.24609375 49.78515625 C-14.25512222 48.55590927 -14.2641507 47.32666229 -14.27345276 46.06016541 C-14.28797089 43.45851076 -14.29684585 40.85681948 -14.30053711 38.25512695 C-14.30485367 35.58643076 -14.32575898 32.91869496 -14.36206055 30.25024414 C-14.41073402 26.40741394 -14.42631058 22.5657623 -14.43359375 18.72265625 C-14.45312607 17.52778091 -14.47265839 16.33290558 -14.49278259 15.1018219 C-14.44758174 6.83785519 -14.44758174 6.83785519 -11.52758789 3.52124023 C-10.65223389 3.08110596 -9.77687988 2.64097168 -8.875 2.1875 C-7.885 1.56875 -6.895 0.95 -5.875 0.3125 C-2.875 -0.8125 -2.875 -0.8125 0 0 Z " fill="#1C9DDD" transform="translate(18.875,26.8125)"/>
<path d="M0 0 C3.92643029 1.08315318 6.49443795 2.40392415 9.625 5 C9.625 8 9.625 8 8.1875 9.5 C7.671875 9.995 7.15625 10.49 6.625 11 C6.295 11.99 5.965 12.98 5.625 14 C4.635 14.495 4.635 14.495 3.625 15 C3.61041748 15.83772949 3.59583496 16.67545898 3.58081055 17.53857422 C3.51979293 20.64378902 3.44564935 23.74833117 3.36254883 26.85302734 C3.31290041 28.85882336 3.27845836 30.86497687 3.24414062 32.87109375 C3.20869141 34.12792969 3.17324219 35.38476562 3.13671875 36.6796875 C3.11053467 37.84226074 3.08435059 39.00483398 3.05737305 40.20263672 C2.91468994 41.1257666 2.77200684 42.04889648 2.625 43 C-0.375 45 -0.375 45 -2.4375 44.8125 C-4.375 44 -4.375 44 -6.375 41 C-6.66399124 38.2232112 -6.84381712 35.53780398 -6.9296875 32.75390625 C-6.95854034 31.94638412 -6.98739319 31.138862 -7.01712036 30.30686951 C-7.07414934 28.5998439 -7.12593003 26.89263606 -7.17285156 25.18530273 C-7.24964 22.57473885 -7.35845825 19.96675735 -7.46875 17.35742188 C-7.52020178 15.69797665 -7.56974449 14.03847092 -7.6171875 12.37890625 C-7.65343231 11.59963272 -7.68967712 10.82035919 -7.72702026 10.01747131 C-7.79465931 6.45306054 -7.67268494 4.41639638 -5.57080078 1.47631836 C-3.375 0 -3.375 0 0 0 Z " fill="#1E9CDB" transform="translate(33.375,40)"/>
<path d="M0 0 C7.15516016 3.33365417 13.96919989 7.0528126 20.6875 11.1875 C21.39455078 11.61530762 22.10160156 12.04311523 22.83007812 12.48388672 C27.88029734 15.64089202 27.88029734 15.64089202 29 19 C29.06937062 21.22818441 29.08457084 23.45834524 29.0625 25.6875 C29.05347656 26.86699219 29.04445312 28.04648437 29.03515625 29.26171875 C29.02355469 30.16535156 29.01195312 31.06898437 29 32 C27.56988027 32.86646667 26.13059381 33.71781829 24.6875 34.5625 C23.48673828 35.27599609 23.48673828 35.27599609 22.26171875 36.00390625 C20 37 20 37 17 36 C17.15984375 35.20078125 17.3196875 34.4015625 17.484375 33.578125 C17.79813986 29.64683582 17.9645121 26.46565259 16 23 C10.20976759 17.83421821 2.9208854 14.40427723 -4 11 C-3.34 10.67 -2.68 10.34 -2 10 C0.625 10.9375 0.625 10.9375 3 12 C3 11.34 3 10.68 3 10 C3.66 10 4.32 10 5 10 C5.66 11.98 6.32 13.96 7 16 C7.99 16 8.98 16 10 16 C10 16.66 10 17.32 10 18 C10.71027344 17.98839844 11.42054687 17.97679688 12.15234375 17.96484375 C13.07144531 17.95582031 13.99054688 17.94679688 14.9375 17.9375 C15.85402344 17.92589844 16.77054688 17.91429688 17.71484375 17.90234375 C20 18 20 18 21 19 C20.42547254 15.06924356 20.42547254 15.06924356 18 12 C16.7625 11.7834375 16.7625 11.7834375 15.5 11.5625 C13 11 13 11 11 8 C8.69855891 6.92863949 6.3659787 5.92010283 4 5 C4 4.34 4 3.68 4 3 C2.68 3.33 1.36 3.66 0 4 C0 2.68 0 1.36 0 0 Z " fill="#219ED9" transform="translate(72,16)"/>
<path d="M0 0 C0.33 0 0.66 0 1 0 C1.01981934 1.07483643 1.03963867 2.14967285 1.06005859 3.25708008 C1.13611258 7.24364714 1.22483009 11.2298491 1.31738281 15.21606445 C1.35567345 16.94157708 1.39052621 18.66716956 1.421875 20.39282227 C1.46752404 22.87284895 1.52551781 25.35232591 1.5859375 27.83203125 C1.59748871 28.60400345 1.60903992 29.37597565 1.62094116 30.17134094 C1.72521273 33.95246674 1.8534589 35.78018835 4 39 C6.475 38.505 6.475 38.505 9 38 C9.33 28.76 9.66 19.52 10 10 C10.99 9.67 11.98 9.34 13 9 C13.33 7.35 13.66 5.7 14 4 C14.99 3.67 15.98 3.34 17 3 C17 2.34 17 1.68 17 1 C19.9719385 2.12451727 22.33440687 3.22293791 25 5 C27.62531524 5.16713569 27.62531524 5.16713569 30 5 C30.84454356 8.37817425 31.10844919 10.67465243 30 14 C29.34 14 28.68 14 28 14 C28 14.66 28 15.32 28 16 C21.24520726 16.7342166 16.81475715 14.27591952 11 11 C11.16008545 11.7230835 11.3201709 12.44616699 11.48510742 13.19116211 C12.30034111 17.63841841 12.26618559 22.05147666 12.3125 26.5625 C12.34150391 27.50802734 12.37050781 28.45355469 12.40039062 29.42773438 C12.46395053 36.3459857 12.46395053 36.3459857 10.140625 39.62109375 C7.46246226 41.34626063 6.12329953 41.64067683 3 41 C0.23085088 38.45633815 -0.00490468 36.94454724 -0.34057617 33.14941406 C-0.34010348 31.60473626 -0.3232888 30.06000527 -0.29296875 28.515625 C-0.28872391 27.70003113 -0.28447906 26.88443726 -0.28010559 26.04412842 C-0.26334715 23.44574616 -0.22570097 20.84814681 -0.1875 18.25 C-0.17244946 16.48568831 -0.1587617 14.72136442 -0.14648438 12.95703125 C-0.11345301 8.63772035 -0.06169086 4.3189928 0 0 Z " fill="#2393CC" transform="translate(26,45)"/>
<path d="M0 0 C1.65 0.33 3.3 0.66 5 1 C5 8.26 5 15.52 5 23 C-1 26 -1 26 -5 26 C-5 26.99 -5 27.98 -5 29 C-8 30 -8 30 -10.1875 29.0625 C-11.0846875 28.5365625 -11.0846875 28.5365625 -12 28 C-12.25 25.6875 -12.25 25.6875 -12 23 C-10 21.1875 -10 21.1875 -8 20 C-7.01 20.99 -6.02 21.98 -5 23 C-5.020625 22.030625 -5.04125 21.06125 -5.0625 20.0625 C-5 17 -5 17 -4 16 C-3.71599669 12.89850354 -3.5512529 9.79707354 -3.37890625 6.6875 C-3.25386719 5.800625 -3.12882812 4.91375 -3 4 C-2.34 3.67 -1.68 3.34 -1 3 C-0.67 2.01 -0.34 1.02 0 0 Z " fill="#1A81D3" transform="translate(94,68)"/>
<path d="M0 0 C0.66 0.33 1.32 0.66 2 1 C0.35 1.66 -1.3 2.32 -3 3 C-3 3.66 -3 4.32 -3 5 C-4.65 5.33 -6.3 5.66 -8 6 C-7.67 7.65 -7.34 9.3 -7 11 C-4.03 11.33 -1.06 11.66 2 12 C-0.52092491 14.52092491 -2.36734109 15.95271959 -5.37890625 17.69921875 C-6.63670898 18.42915039 -6.63670898 18.42915039 -7.91992188 19.17382812 C-8.79197266 19.67333984 -9.66402344 20.17285156 -10.5625 20.6875 C-11.43841797 21.19861328 -12.31433594 21.70972656 -13.21679688 22.23632812 C-19.74417974 26 -19.74417974 26 -22 26 C-22 24.35 -22 22.7 -22 21 C-20.02 20.67 -18.04 20.34 -16 20 C-16.33 18.02 -16.66 16.04 -17 14 C-20.02419525 14.58803797 -23.01758453 15.22678118 -26 16 C-22.02727401 11.58604397 -16.54897861 9.13276234 -11.4375 6.25 C-10.37080078 5.63511719 -9.30410156 5.02023438 -8.20507812 4.38671875 C-7.18736328 3.81050781 -6.16964844 3.23429687 -5.12109375 2.640625 C-4.1870874 2.10985352 -3.25308105 1.57908203 -2.29077148 1.03222656 C-1.1568396 0.52127441 -1.1568396 0.52127441 0 0 Z " fill="#20ADDE" transform="translate(36,13)"/>
<path d="M0 0 C0 1.32 0 2.64 0 4 C-0.99 4.33 -1.98 4.66 -3 5 C-2.67 5.66 -2.34 6.32 -2 7 C-2.66 7 -3.32 7 -4 7 C-4.0928125 8.1446875 -4.0928125 8.1446875 -4.1875 9.3125 C-5 12 -5 12 -7.125 13.8125 C-10.60933433 15.25168157 -13.26364096 15.28741223 -17 15 C-17.33 14.67 -17.66 14.34 -18 14 C-19.66617115 13.95936168 -21.33388095 13.957279 -23 14 C-23.33 13.34 -23.66 12.68 -24 12 C-20.58452904 8.28316395 -17.50403235 6.20197137 -13 4 C-12.34 3.01 -11.68 2.02 -11 1 C-7.34000601 -0.1183315 -3.80466519 -0.08848059 0 0 Z " fill="#197ECF" transform="translate(69,101)"/>
<path d="M0 0 C0 0.66 0 1.32 0 2 C0.556875 2.103125 1.11375 2.20625 1.6875 2.3125 C4.4769101 3.14178408 6.6139064 4.34299056 9 6 C9 6.66 9 7.32 9 8 C9.7425 7.9175 10.485 7.835 11.25 7.75 C14 8 14 8 16.3125 9.6875 C18.28544288 12.39116247 18.36337162 13.72965541 18 17 C17.01 16.67 16.02 16.34 15 16 C13.824375 16 12.64875 16 11.4375 16 C8 16 8 16 6 15 C6 14.34 6 13.68 6 13 C5.01 13 4.02 13 3 13 C1 10 1 10 1 7 C0.34 7 -0.32 7 -1 7 C-1 7.66 -1 8.32 -1 9 C-2.32 8.67 -3.64 8.34 -5 8 C-5 7.01 -5 6.02 -5 5 C-5.66 5 -6.32 5 -7 5 C-5.22678182 1.07358831 -4.52021524 0 0 0 Z " fill="#1DA6E0" transform="translate(76,19)"/>
<path d="M0 0 C0.66 0.33 1.32 0.66 2 1 C1.35002045 1.38293213 0.70004089 1.76586426 0.03036499 2.16040039 C-2.22094993 3.83378855 -2.22094993 3.83378855 -2.49447632 6.46655273 C-2.49162628 7.44567627 -2.48877625 8.4247998 -2.48583984 9.43359375 C-2.4919931 10.54484619 -2.49814636 11.65609863 -2.50448608 12.80102539 C-2.49011505 14.00106201 -2.47574402 15.20109863 -2.4609375 16.4375 C-2.46002106 17.66911865 -2.45910461 18.9007373 -2.4581604 20.16967773 C-2.45056402 23.44363805 -2.42454964 26.71682337 -2.39123535 29.99060059 C-2.36434073 33.31926491 -2.3706837 36.64779322 -2.37109375 39.9765625 C-2.36126188 42.50521637 -2.34960457 45.03386395 -2.3359375 47.5625 C-2.33259903 49.36255493 -2.33259903 49.36255493 -2.32919312 51.19897461 C-2.31643341 52.31022705 -2.30367371 53.42147949 -2.29052734 54.56640625 C-2.28290375 55.54552979 -2.27528015 56.52465332 -2.26742554 57.53344727 C-2.16459606 60.25337024 -2.16459606 60.25337024 0 63 C2.17595141 64.43683848 2.17595141 64.43683848 4.625 65.6875 C5.44226562 66.12449219 6.25953125 66.56148438 7.1015625 67.01171875 C7.72804688 67.33785156 8.35453125 67.66398437 9 68 C10.485 67.01 10.485 67.01 12 66 C12.33 67.98 12.66 69.96 13 72 C8.98832453 70.5216233 5.42979591 68.60821705 1.75 66.4375 C0.69296875 65.81746094 -0.3640625 65.19742188 -1.453125 64.55859375 C-4 63 -4 63 -5 62 C-5.11992616 60.21144035 -5.17018444 58.41816463 -5.19287109 56.62573242 C-5.20893402 55.47751511 -5.22499695 54.32929779 -5.24154663 53.14628601 C-5.28580347 47.88554556 -5.32751181 42.62489404 -5.35009766 37.36401367 C-5.36673458 33.89673699 -5.41149665 30.43041297 -5.4624691 26.96349621 C-5.5042368 23.6567047 -5.5112803 20.34999941 -5.5234375 17.04296875 C-5.54610687 15.79807175 -5.56877625 14.55317474 -5.59213257 13.27055359 C-5.58928253 12.11287979 -5.5864325 10.95520599 -5.58349609 9.76245117 C-5.59158295 8.74398605 -5.5996698 7.72552094 -5.60800171 6.67619324 C-4.78515274 3.05432372 -3.01828313 2.00911657 0 0 Z " fill="#328CC0" transform="translate(8,29)"/>
<path d="M0 0 C4.13324667 0.47691308 7.4774726 2.95135061 11 5 C11.11597653 8.77057547 11.18717396 12.54069393 11.25 16.3125 C11.30027344 17.9202832 11.30027344 17.9202832 11.3515625 19.56054688 C11.36445312 20.58857422 11.37734375 21.61660156 11.390625 22.67578125 C11.41157227 23.62364502 11.43251953 24.57150879 11.45410156 25.5480957 C11 28 11 28 8.97558594 29.83276367 C8.32364258 30.21795166 7.67169922 30.60313965 7 31 C6.34 30.67 5.68 30.34 5 30 C5.99 29.34 6.98 28.68 8 28 C8.41570008 25.77501085 8.41570008 25.77501085 8.29296875 23.2109375 C8.2784668 21.79941406 8.2784668 21.79941406 8.26367188 20.359375 C8.23853516 19.37453125 8.21339844 18.3896875 8.1875 17.375 C8.17396484 16.38242188 8.16042969 15.38984375 8.14648438 14.3671875 C8.11105743 11.91091928 8.06166196 9.45572715 8 7 C7.01 7 6.02 7 5 7 C4.34 7.66 3.68 8.32 3 9 C2.67 9 2.34 9 2 9 C1.95101562 9.85464844 1.90203125 10.70929688 1.8515625 11.58984375 C1.77679688 12.69457031 1.70203125 13.79929687 1.625 14.9375 C1.52058594 16.59072266 1.52058594 16.59072266 1.4140625 18.27734375 C1.27742188 19.17582031 1.14078125 20.07429688 1 21 C0.34 21.33 -0.32 21.66 -1 22 C-1.02887814 18.52085059 -1.04675687 15.04173169 -1.0625 11.5625 C-1.07087891 10.56927734 -1.07925781 9.57605469 -1.08789062 8.55273438 C-1.09111328 7.60849609 -1.09433594 6.66425781 -1.09765625 5.69140625 C-1.10289307 4.81685791 -1.10812988 3.94230957 -1.11352539 3.04125977 C-1 1 -1 1 0 0 Z " fill="#2A74B6" transform="translate(90,63)"/>
<path d="M0 0 C0.33 0 0.66 0 1 0 C1.00808685 0.57185028 1.01617371 1.14370056 1.02450562 1.73287964 C1.11037948 7.66996999 1.20987473 13.60671981 1.31738281 19.54345703 C1.35573134 21.7608469 1.39057371 23.97830024 1.421875 26.19580078 C1.46739826 29.37816089 1.52541319 32.56008182 1.5859375 35.7421875 C1.59748871 36.73805878 1.60903992 37.73393005 1.62094116 38.75997925 C1.64081085 39.68078278 1.66068054 40.6015863 1.68115234 41.55029297 C1.70113785 42.76940872 1.70113785 42.76940872 1.7215271 44.01315308 C1.82899081 46.23040058 1.82899081 46.23040058 4 48 C1.36 48.33 -1.28 48.66 -4 49 C-4.66 48.01 -5.32 47.02 -6 46 C-4.515 45.505 -4.515 45.505 -3 45 C-1.8404259 40.34057778 -1.7973461 35.78701493 -1.71875 31.015625 C-1.70034058 30.15942566 -1.68193115 29.30322632 -1.66296387 28.42108154 C-1.5844597 24.76863777 -1.51623697 21.11602238 -1.44775391 17.46337891 C-1.39619503 14.7931968 -1.33891751 12.12318101 -1.28125 9.453125 C-1.26767456 8.62089417 -1.25409912 7.78866333 -1.2401123 6.93121338 C-1.11289747 1.11289747 -1.11289747 1.11289747 0 0 Z " fill="#2B88BB" transform="translate(14,39)"/>
<path d="M0 0 C1.051875 0.5878125 1.051875 0.5878125 2.125 1.1875 C1.795 2.8375 1.465 4.4875 1.125 6.1875 C-0.855 6.5175 -2.835 6.8475 -4.875 7.1875 C-5.205 8.8375 -5.535 10.4875 -5.875 12.1875 C-6.535 11.8575 -7.195 11.5275 -7.875 11.1875 C-7.875 9.5375 -7.875 7.8875 -7.875 6.1875 C-8.865 5.8575 -9.855 5.5275 -10.875 5.1875 C-10.99875 6.156875 -11.1225 7.12625 -11.25 8.125 C-11.45625 9.135625 -11.6625 10.14625 -11.875 11.1875 C-12.865 11.6825 -12.865 11.6825 -13.875 12.1875 C-14.1875 9.4375 -14.1875 9.4375 -13.875 6.1875 C-10.2150042 2.41985726 -5.34643136 -1.51094799 0 0 Z " fill="#21ACE3" transform="translate(18.875,26.8125)"/>
<path d="M0 0 C0.99 0.495 0.99 0.495 2 1 C2 9.91 2 18.82 2 28 C4.31 28 6.62 28 9 28 C9.66 26.68 10.32 25.36 11 24 C11.33 24.99 11.66 25.98 12 27 C10.375 29.0625 10.375 29.0625 8 31 C4.875 31 4.875 31 2 30 C-0.2695768 26.72899973 -0.23355623 23.8227355 -0.1953125 19.921875 C-0.18886719 18.76171875 -0.18242188 17.6015625 -0.17578125 16.40625 C-0.15902344 15.1996875 -0.14226562 13.993125 -0.125 12.75 C-0.11597656 11.52796875 -0.10695313 10.3059375 -0.09765625 9.046875 C-0.07409513 6.03105218 -0.04119706 3.01562508 0 0 Z " fill="#227AB9" transform="translate(66,55)"/>
<path d="M0 0 C4.99198551 4.99198551 3.04855393 17.63159397 3.06591797 24.4909668 C3.06097614 28.66081349 3.03879591 32.83033455 3 37 C2.34 36.67 1.68 36.34 1 36 C0.97494385 35.04109863 0.9498877 34.08219727 0.92407227 33.09423828 C0.8300138 29.54201523 0.72978942 25.98998844 0.62768555 22.43798828 C0.58433074 20.89962347 0.54265605 19.36121037 0.50268555 17.82275391 C0.44499602 15.6134586 0.38129821 13.40440652 0.31640625 11.1953125 C0.29969376 10.50567413 0.28298126 9.81603577 0.26576233 9.10549927 C0.19193005 5.42885736 0.19193005 5.42885736 -1 2 C-3.64 2 -6.28 2 -9 2 C-7.01176662 -1.97646676 -3.67810698 -1.03741479 0 0 Z " fill="#2876B4" transform="translate(75,41)"/>
<path d="M0 0 C0.66 0.33 1.32 0.66 2 1 C0.35 1.66 -1.3 2.32 -3 3 C-3 3.66 -3 4.32 -3 5 C-4.65 5.33 -6.3 5.66 -8 6 C-8 6.66 -8 7.32 -8 8 C-8.763125 8.20625 -9.52625 8.4125 -10.3125 8.625 C-13.82229103 10.42070704 -14.52599781 12.43136312 -16 16 C-16.33 15.34 -16.66 14.68 -17 14 C-20.02419525 14.58803797 -23.01758453 15.22678118 -26 16 C-22.02727401 11.58604397 -16.54897861 9.13276234 -11.4375 6.25 C-10.37080078 5.63511719 -9.30410156 5.02023438 -8.20507812 4.38671875 C-7.18736328 3.81050781 -6.16964844 3.23429687 -5.12109375 2.640625 C-4.1870874 2.10985352 -3.25308105 1.57908203 -2.29077148 1.03222656 C-1.1568396 0.52127441 -1.1568396 0.52127441 0 0 Z " fill="#30A0C8" transform="translate(36,13)"/>
<path d="M0 0 C0.845625 0.5053125 1.69125 1.010625 2.5625 1.53125 C3.44965698 2.03809326 3.44965698 2.03809326 4.35473633 2.55517578 C6.38202564 3.72413999 8.37939789 4.93406306 10.375 6.15625 C11.06787109 6.57648437 11.76074219 6.99671875 12.47460938 7.4296875 C14.17260748 8.4601967 15.86783614 9.49526681 17.5625 10.53125 C16.9025 10.86125 16.2425 11.19125 15.5625 11.53125 C12.61710222 9.93393813 9.79625252 8.21797432 6.96875 6.42382812 C2.99144933 4.01450176 0.21134352 2.83719731 -4.4375 3.53125 C-6.44396876 4.59178174 -6.44396876 4.59178174 -8.0625 6.09375 C-9.7265625 7.53515625 -9.7265625 7.53515625 -11.4375 8.53125 C-13.6484375 8.18359375 -13.6484375 8.18359375 -15.4375 7.53125 C-13.38783571 6.13279676 -11.32653902 4.76372858 -9.25 3.40625 C-8.67185547 3.00792969 -8.09371094 2.60960937 -7.49804688 2.19921875 C-3.14455865 -0.60472282 -3.14455865 -0.60472282 0 0 Z " fill="#349EC5" transform="translate(53.4375,4.46875)"/>
<path d="M0 0 C0 1.98 0 3.96 0 6 C-1.32 5.34 -2.64 4.68 -4 4 C-4.680625 4.763125 -5.36125 5.52625 -6.0625 6.3125 C-9.43476927 9.39776763 -11.68688033 10.58843356 -16 12 C-18.21484375 11.5703125 -18.21484375 11.5703125 -20 11 C-17.0460832 9.15947576 -14.08617092 7.32882635 -11.125 5.5 C-10.28324219 4.97535156 -9.44148438 4.45070313 -8.57421875 3.91015625 C-7.76855469 3.41386719 -6.96289062 2.91757813 -6.1328125 2.40625 C-5.01737061 1.71499023 -5.01737061 1.71499023 -3.87939453 1.00976562 C-2 0 -2 0 0 0 Z " fill="#2274B7" transform="translate(89,85)"/>
<path d="M0 0 C5.53495536 2.09952969 10.49949599 5.00115881 15.625 7.9375 C17.05585937 8.74477539 17.05585937 8.74477539 18.515625 9.56835938 C19.43085937 10.09107422 20.34609375 10.61378906 21.2890625 11.15234375 C22.12131348 11.62663818 22.95356445 12.10093262 23.81103516 12.58959961 C25.84097985 13.89753966 27.37894276 15.22235218 29 17 C25.95230415 16.32505366 23.22735561 15.32650374 20.375 14.0625 C19.59898438 13.72347656 18.82296875 13.38445312 18.0234375 13.03515625 C15.51136825 11.7500243 14.26291768 10.52583536 13 8 C11.01463373 7.29094062 9.01089078 6.63305821 7 6 C4.64536057 5.04401639 2.32650882 4.02366388 0 3 C0 2.01 0 1.02 0 0 Z " fill="#2A78B4" transform="translate(18,87)"/>
<path d="M0 0 C0.33 0.66 0.66 1.32 1 2 C4.465 1.505 4.465 1.505 8 1 C3.97806144 4.50297874 -2.39433144 10 -8 10 C-8 8.35 -8 6.7 -8 5 C-6.02 4.67 -4.04 4.34 -2 4 C-2 3.34 -2 2.68 -2 2 C-1.34 2 -0.68 2 0 2 C0 1.34 0 0.68 0 0 Z " fill="#2EA1CF" transform="translate(22,29)"/>
<path d="M0 0 C9.36609416 4.44758661 18.17563712 9.57518676 27 15 C26.01 15.33 25.02 15.66 24 16 C22.30963442 15.04060332 20.64605826 14.03357147 19 13 C17.4221875 12.505 17.4221875 12.505 15.8125 12 C13 11 13 11 11 8 C8.69855891 6.92863949 6.3659787 5.92010283 4 5 C4 4.34 4 3.68 4 3 C2.68 3.33 1.36 3.66 0 4 C0 2.68 0 1.36 0 0 Z " fill="#369BCC" transform="translate(72,16)"/>
<path d="M0 0 C2.97 0.495 2.97 0.495 6 1 C6 5.62 6 10.24 6 15 C6.99 15.33 7.98 15.66 9 16 C7.0625 16.5625 7.0625 16.5625 5 17 C2.71573806 14.71573806 3.60684388 9.194031 3.4765625 6.1015625 C2.98056405 2.87350701 2.56663508 1.90781966 0 0 Z " fill="#2D8DBE" transform="translate(85,36)"/>
<path d="M0 0 C2.31 0.66 4.62 1.32 7 2 C7 1.34 7 0.68 7 0 C7.66 0 8.32 0 9 0 C9.66 1.98 10.32 3.96 11 6 C11.99 6 12.98 6 14 6 C14 6.66 14 7.32 14 8 C14.99 8.33 15.98 8.66 17 9 C16.01 9.495 16.01 9.495 15 10 C12.37756211 8.61511707 9.8901582 7.18421246 7.375 5.625 C6.66859375 5.19960938 5.9621875 4.77421875 5.234375 4.3359375 C3.46808541 3.25843265 1.73117753 2.1330578 0 1 C0 0.67 0 0.34 0 0 Z " fill="#3099C9" transform="translate(68,26)"/>
<path d="M0 0 C0 0.66 0 1.32 0 2 C-0.969375 2.061875 -1.93875 2.12375 -2.9375 2.1875 C-7.244337 2.75881511 -10.43916084 4.76932224 -14.08203125 7.0390625 C-14.71496094 7.35617188 -15.34789062 7.67328125 -16 8 C-16.66 7.67 -17.32 7.34 -18 7 C-17.01 6.67 -16.02 6.34 -15 6 C-14.67 4.35 -14.34 2.7 -14 1 C-13.05125 1.020625 -12.1025 1.04125 -11.125 1.0625 C-7.23714425 0.98474289 -4.04722 -0.08798304 0 0 Z " fill="#35A2CD" transform="translate(56,17)"/>
<path d="M0 0 C3.3 0.33 6.6 0.66 10 1 C10 1.66 10 2.32 10 3 C11.65 3 13.3 3 15 3 C13.8125 4.5625 13.8125 4.5625 12 6 C7.38012536 5.87167015 3.84491824 3.33710717 0 1 C0 0.67 0 0.34 0 0 Z " fill="#2571B9" transform="translate(42,113)"/>
<path d="M0 0 C0.66 0 1.32 0 2 0 C2 1.65 2 3.3 2 5 C3.65 5.33 5.3 5.66 7 6 C7 6.66 7 7.32 7 8 C2.38486888 6.68139111 -1.09897612 4.78644563 -5 2 C-4.34 1.67 -3.68 1.34 -3 1 C-2.01 1.33 -1.02 1.66 0 2 C0 1.34 0 0.68 0 0 Z " fill="#319ECB" transform="translate(61,18)"/>
<path d="M0 0 C0.99 1.32 1.98 2.64 3 4 C2.34 4 1.68 4 1 4 C0.67 5.65 0.34 7.3 0 9 C-0.99 8.67 -1.98 8.34 -3 8 C-2.67 7.01 -2.34 6.02 -2 5 C-1.34 5 -0.68 5 0 5 C0 3.35 0 1.7 0 0 Z " fill="#187FD4" transform="translate(75,75)"/>
<path d="M0 0 C0.99 0.66 1.98 1.32 3 2 C3 2.66 3 3.32 3 4 C3.99 4 4.98 4 6 4 C6.33 4.99 6.66 5.98 7 7 C3.54074837 5.7508258 0.85306797 4.32472205 -2 2 C-1.34 2 -0.68 2 0 2 C0 1.34 0 0.68 0 0 Z " fill="#257EC4" transform="translate(23,99)"/>
<path d="M0 0 C-2.13464912 2.45484649 -3.70720291 3.68134222 -7 4 C-7.66 3.34 -8.32 2.68 -9 2 C-5.86501708 0.14223235 -3.62528568 -0.20140476 0 0 Z " fill="#32A3D1" transform="translate(38,25)"/>
<path d="M0 0 C-5.14285714 4.42857143 -5.14285714 4.42857143 -9 5 C-8.625 3.0625 -8.625 3.0625 -8 1 C-5.29120665 -0.35439668 -2.99066732 -0.06501451 0 0 Z " fill="#2375C5" transform="translate(73,107)"/>
<path d="M0 0 C0.66 0.99 1.32 1.98 2 3 C1.01 3.495 1.01 3.495 0 4 C-0.33 3.34 -0.66 2.68 -1 2 C-3.64 2 -6.28 2 -9 2 C-7.02836683 -1.94326634 -3.64958638 -1.12294965 0 0 Z " fill="#3382C2" transform="translate(75,41)"/>
</svg>
